<svg width="496" height="496" viewBox="0 0 496 496" fill="none" xmlns="http://www.w3.org/2000/svg">
    <g opacity="0.1">
        <path fill-rule="evenodd" clip-rule="evenodd"
            d="M0 164.007V0H164.007V164.007H0ZM38.5849 125.417H125.412V38.5899H38.5849V125.417Z"
            fill="white" />
        <rect x="65.605" y="65.604" width="38.7652" height="38.7652" fill="white" />
        <path fill-rule="evenodd" clip-rule="evenodd"
            d="M330.995 164.007V0H495.001V164.007H330.995ZM369.584 125.417H456.411V38.5899H369.584V125.417Z"
            fill="white" />
        <rect x="390.633" y="65.604" width="38.7652" height="38.7652" fill="white" />
        <path fill-rule="evenodd" clip-rule="evenodd"
            d="M0 495.002V330.995H164.007V495.002H0ZM38.5849 456.412H125.412V369.585H38.5849V456.412Z"
            fill="white" />
        <rect x="65.605" y="390.635" width="38.7652" height="38.7652" fill="white" />
        <rect x="38.7661" y="187.863" width="38.7652" height="38.7652" fill="white" />
        <path d="M113.772 268.375V229.61H77.5361V268.375H112.866V307.14H149.103V268.375H113.772Z"
            fill="white" />
        <rect x="274.341" y="71.5669" width="38.7652" height="38.7652" fill="white" />
        <rect x="196.806" y="38.7644" width="38.7652" height="71.5666" fill="white" />
        <rect x="235.575" width="38.7652" height="38.7652" fill="white" />
        <path d="M235.571 116.296V155.062H196.806V193.827H274.336V116.296H235.571Z" fill="white" />
        <path
            d="M274.336 345.415V307.14H235.571V229.61H196.806V308.122H235.571V346.396H274.336V384.671H351.867V345.415H274.336Z"
            fill="white" />
        <rect x="274.341" y="187.863" width="38.7652" height="77.5305" fill="white" />
        <path fill-rule="evenodd" clip-rule="evenodd"
            d="M457.343 196.809V232.968H495.009V307.141H389.543V270.982H351.876V233.896H388.601V196.809H457.343ZM389.545 270.055H457.345V233.895H389.545V270.055Z"
            fill="white" />
        <rect x="456.237" y="345.906" width="38.7652" height="77.5305" fill="white" />
        <rect x="313.11" y="268.374" width="38.7652" height="38.7652" fill="white" />
        <rect x="351.879" y="384.67" width="38.7652" height="38.7652" fill="white" />
        <rect x="390.633" y="339.941" width="38.7652" height="38.7652" fill="white" />
        <path d="M384.677 423.436V495.003H424.436V460.613H456.244V423.436H384.677Z" fill="white" />
        <rect x="196.806" y="345.906" width="38.7652" height="71.5666" fill="white" />
        <path
            d="M309.747 456.236V417.471H235.575V495.002H272.661V456.236H308.82V495.002H345.907V456.236H309.747Z"
            fill="white" />
        <rect x="116.294" y="187.863" width="77.5305" height="38.7652" fill="white" />
        <rect x="0.00390625" y="229.61" width="38.7652" height="77.5305" fill="white" />
    </g>
    <path
        d="M349.592 134.717L184 154.797V337.683L349.434 359.081C361.399 360.629 372 351.311 372 339.246V154.572C372 142.571 361.506 133.273 349.592 134.717Z"
        fill="#220E27" />
    <rect x="157.929" y="157" width="180" height="179" rx="20" fill="white" stroke="#220E27"
        stroke-width="4" />
    <path fill-rule="evenodd" clip-rule="evenodd"
        d="M183.285 224.468V181.561H226.121V224.468H183.285ZM193.363 214.372H216.041V191.657H193.363V214.372Z"
        fill="#220E27" fill-opacity="0.2" />
    <rect x="199.685" y="197.987" width="10.1247" height="10.1416" fill="#220E27" fill-opacity="0.2" />
    <path fill-rule="evenodd" clip-rule="evenodd"
        d="M269.734 224.468V181.561H312.57V224.468H269.734ZM279.812 214.372H302.49V191.657H279.812V214.372Z"
        fill="#220E27" fill-opacity="0.2" />
    <rect x="286.045" y="197.987" width="10.1247" height="10.1416" fill="#220E27" fill-opacity="0.2" />
    <path fill-rule="evenodd" clip-rule="evenodd"
        d="M183.285 311.061V268.154H226.121V311.061H183.285ZM193.363 300.965H216.041V278.25H193.363V300.965Z"
        fill="#220E27" fill-opacity="0.2" />
    <rect x="199.685" y="284.493" width="10.1247" height="10.1416" fill="#220E27" fill-opacity="0.2" />
    <rect x="254.938" y="200.284" width="10.1247" height="10.1416" fill="#220E27" fill-opacity="0.2" />
    <rect x="234.688" y="191.703" width="10.1247" height="18.7229" fill="#220E27" fill-opacity="0.2" />
    <rect x="244.812" y="181.561" width="10.1247" height="10.1416" fill="#220E27" fill-opacity="0.2" />
    <path fill-rule="evenodd" clip-rule="evenodd"
        d="M302.733 233.049V242.509H312.571V261.913H285.025V252.453H275.188V242.751H284.779V233.049H302.733ZM285.027 252.211H302.735V242.751H285.027V252.211Z"
        fill="#220E27" fill-opacity="0.2" />
    <rect x="302.445" y="272.055" width="10.1247" height="20.2831" fill="#220E27" fill-opacity="0.2" />
    <rect x="267" y="252" width="8" height="10" fill="#220E27" fill-opacity="0.2" />
    <rect x="275.188" y="282.197" width="10.1247" height="10.1416" fill="#220E27" fill-opacity="0.2" />
    <rect x="285.311" y="270.495" width="10.1247" height="10.1416" fill="#220E27" fill-opacity="0.2" />
    <path d="M283.755 292.338V311.061H294.139V302.064H302.447V292.338H283.755Z" fill="#220E27"
        fill-opacity="0.2" />
    <rect x="234.688" y="272.055" width="10.1247" height="18.7229" fill="#220E27" fill-opacity="0.2" />
    <path
        d="M264.185 300.919V290.778H244.812V311.061H254.499V300.919H263.943V311.061H273.629V300.919H264.185Z"
        fill="#220E27" fill-opacity="0.2" />
    <ellipse cx="251.429" cy="233" rx="10.5" ry="11" fill="black" />
    <path d="M241.929 259L251.64 230L260.929 259H241.929Z" fill="black" />
    <path fill-rule="evenodd" clip-rule="evenodd"
        d="M353 141.5C345.003 141.5 338.5 148.003 338.5 156C338.5 148.003 331.997 141.5 324 141.5C331.997 141.5 338.5 134.997 338.5 127C338.5 134.997 345.003 141.5 353 141.5Z"
        fill="white" />
    <path fill-rule="evenodd" clip-rule="evenodd"
        d="M353 141.5C345.003 141.5 338.5 148.003 338.5 156C338.5 148.003 331.997 141.5 324 141.5C331.997 141.5 338.5 134.997 338.5 127C338.5 134.997 345.003 141.5 353 141.5Z"
        stroke="black" stroke-width="2" />
    <path fill-rule="evenodd" clip-rule="evenodd"
        d="M142 99.5C134.003 99.5 127.5 106.003 127.5 114C127.5 106.003 120.997 99.5 113 99.5C120.997 99.5 127.5 92.9968 127.5 85C127.5 92.9968 134.003 99.5 142 99.5Z"
        fill="white" />
    <path fill-rule="evenodd" clip-rule="evenodd"
        d="M142 99.5C134.003 99.5 127.5 106.003 127.5 114C127.5 106.003 120.997 99.5 113 99.5C120.997 99.5 127.5 92.9968 127.5 85C127.5 92.9968 134.003 99.5 142 99.5Z"
        stroke="black" stroke-width="2" />
    <path fill-rule="evenodd" clip-rule="evenodd"
        d="M471 270.5C463.003 270.5 456.5 277.003 456.5 285C456.5 277.003 449.997 270.5 442 270.5C449.997 270.5 456.5 263.997 456.5 256C456.5 263.997 463.003 270.5 471 270.5Z"
        fill="white" />
    <path fill-rule="evenodd" clip-rule="evenodd"
        d="M471 270.5C463.003 270.5 456.5 277.003 456.5 285C456.5 277.003 449.997 270.5 442 270.5C449.997 270.5 456.5 263.997 456.5 256C456.5 263.997 463.003 270.5 471 270.5Z"
        stroke="black" stroke-width="2" />
    <path fill-rule="evenodd" clip-rule="evenodd"
        d="M293 373.5C285.003 373.5 278.5 380.003 278.5 388C278.5 380.003 271.997 373.5 264 373.5C271.997 373.5 278.5 366.997 278.5 359C278.5 366.997 285.003 373.5 293 373.5Z"
        fill="white" />
    <path fill-rule="evenodd" clip-rule="evenodd"
        d="M293 373.5C285.003 373.5 278.5 380.003 278.5 388C278.5 380.003 271.997 373.5 264 373.5C271.997 373.5 278.5 366.997 278.5 359C278.5 366.997 285.003 373.5 293 373.5Z"
        stroke="black" stroke-width="2" />
    <path fill-rule="evenodd" clip-rule="evenodd"
        d="M458 303.5C445.591 303.5 435.5 313.591 435.5 326C435.5 313.591 425.409 303.5 413 303.5C425.409 303.5 435.5 293.409 435.5 281C435.5 293.409 445.591 303.5 458 303.5Z"
        fill="white" />
    <path fill-rule="evenodd" clip-rule="evenodd"
        d="M458 303.5C445.591 303.5 435.5 313.591 435.5 326C435.5 313.591 425.409 303.5 413 303.5C425.409 303.5 435.5 293.409 435.5 281C435.5 293.409 445.591 303.5 458 303.5Z"
        stroke="black" stroke-width="2" />
    <path fill-rule="evenodd" clip-rule="evenodd"
        d="M119 378.5C106.591 378.5 96.5 388.591 96.5 401C96.5 388.591 86.4088 378.5 74 378.5C86.4088 378.5 96.5 368.409 96.5 356C96.5 368.409 106.591 378.5 119 378.5Z"
        fill="white" />
    <path fill-rule="evenodd" clip-rule="evenodd"
        d="M119 378.5C106.591 378.5 96.5 388.591 96.5 401C96.5 388.591 86.4088 378.5 74 378.5C86.4088 378.5 96.5 368.409 96.5 356C96.5 368.409 106.591 378.5 119 378.5Z"
        stroke="black" stroke-width="2" />
    <mask id="path-58-inside-1_1809_32584" fill="white">
        <path fill-rule="evenodd" clip-rule="evenodd"
            d="M64.4644 232.672C62.5117 230.719 62.5117 227.554 64.4644 225.601L92.6009 197.464C94.5535 195.512 97.7193 195.512 99.6719 197.464L122.178 219.97C123.116 220.908 124.387 221.435 125.713 221.435H224.265C227.027 221.435 229.265 223.673 229.265 226.435V231.838C229.265 234.6 227.027 236.838 224.265 236.838H223.263C220.501 236.838 218.263 239.077 218.263 241.838V253.83C218.263 256.591 216.024 258.83 213.263 258.83H211.16C208.399 258.83 206.16 256.591 206.16 253.83V240.139C206.16 238.316 204.682 236.838 202.859 236.838C201.037 236.838 199.559 238.316 199.559 240.139V253.83C199.559 256.591 197.32 258.83 194.559 258.83H192.456C189.695 258.83 187.456 256.591 187.456 253.83V241.838C187.456 239.077 185.218 236.838 182.456 236.838H125.713C124.387 236.838 123.116 237.365 122.178 238.303L99.6719 260.809C97.7193 262.761 94.5535 262.761 92.6009 260.809L64.4644 232.672Z" />
    </mask>
    <path fill-rule="evenodd" clip-rule="evenodd"
        d="M64.4644 232.672C62.5117 230.719 62.5117 227.554 64.4644 225.601L92.6009 197.464C94.5535 195.512 97.7193 195.512 99.6719 197.464L122.178 219.97C123.116 220.908 124.387 221.435 125.713 221.435H224.265C227.027 221.435 229.265 223.673 229.265 226.435V231.838C229.265 234.6 227.027 236.838 224.265 236.838H223.263C220.501 236.838 218.263 239.077 218.263 241.838V253.83C218.263 256.591 216.024 258.83 213.263 258.83H211.16C208.399 258.83 206.16 256.591 206.16 253.83V240.139C206.16 238.316 204.682 236.838 202.859 236.838C201.037 236.838 199.559 238.316 199.559 240.139V253.83C199.559 256.591 197.32 258.83 194.559 258.83H192.456C189.695 258.83 187.456 256.591 187.456 253.83V241.838C187.456 239.077 185.218 236.838 182.456 236.838H125.713C124.387 236.838 123.116 237.365 122.178 238.303L99.6719 260.809C97.7193 262.761 94.5535 262.761 92.6009 260.809L64.4644 232.672Z"
        fill="white" />
    <path
        d="M92.6009 260.809L95.4293 257.98L92.6009 260.809ZM122.178 238.303L125.006 241.131L122.178 238.303ZM122.178 219.97L119.349 222.799L122.178 219.97ZM92.6009 197.464L89.7724 194.636L92.6009 197.464ZM99.6719 197.464L96.8435 200.293L99.6719 197.464ZM95.4293 200.293L67.2928 228.429L61.6359 222.773L89.7724 194.636L95.4293 200.293ZM119.349 222.799L96.8435 200.293L102.5 194.636L125.006 217.142L119.349 222.799ZM224.265 225.435H125.713V217.435H224.265V225.435ZM225.265 231.838V226.435H233.265V231.838H225.265ZM223.263 232.838H224.265V240.838H223.263V232.838ZM214.263 253.83V241.838H222.263V253.83H214.263ZM211.16 254.83H213.263V262.83H211.16V254.83ZM210.16 240.139V253.83H202.16V240.139H210.16ZM195.559 253.83V240.139H203.559V253.83H195.559ZM192.456 254.83H194.559V262.83H192.456V254.83ZM191.456 241.838V253.83H183.456V241.838H191.456ZM125.713 232.838H182.456V240.838H125.713V232.838ZM96.8435 257.98L119.349 235.474L125.006 241.131L102.5 263.637L96.8435 257.98ZM67.2928 229.844L95.4293 257.98L89.7724 263.637L61.6359 235.5L67.2928 229.844ZM102.5 263.637C98.9856 267.152 93.2872 267.152 89.7724 263.637L95.4293 257.98C95.8198 258.371 96.453 258.371 96.8435 257.98L102.5 263.637ZM125.713 240.838C125.448 240.838 125.194 240.944 125.006 241.131L119.349 235.474C121.037 233.786 123.326 232.838 125.713 232.838V240.838ZM183.456 241.838C183.456 241.286 183.008 240.838 182.456 240.838V232.838C187.427 232.838 191.456 236.868 191.456 241.838H183.456ZM192.456 262.83C187.486 262.83 183.456 258.8 183.456 253.83H191.456C191.456 254.382 191.904 254.83 192.456 254.83V262.83ZM203.559 253.83C203.559 258.8 199.529 262.83 194.559 262.83V254.83C195.111 254.83 195.559 254.382 195.559 253.83H203.559ZM202.859 240.838C203.246 240.838 203.559 240.525 203.559 240.139H195.559C195.559 236.107 198.827 232.838 202.859 232.838V240.838ZM202.16 240.139C202.16 240.525 202.473 240.838 202.859 240.838V232.838C206.892 232.838 210.16 236.107 210.16 240.139H202.16ZM211.16 262.83C206.19 262.83 202.16 258.8 202.16 253.83H210.16C210.16 254.382 210.608 254.83 211.16 254.83V262.83ZM222.263 253.83C222.263 258.8 218.233 262.83 213.263 262.83V254.83C213.815 254.83 214.263 254.382 214.263 253.83H222.263ZM223.263 240.838C222.71 240.838 222.263 241.286 222.263 241.838H214.263C214.263 236.868 218.292 232.838 223.263 232.838V240.838ZM233.265 231.838C233.265 236.809 229.236 240.838 224.265 240.838V232.838C224.817 232.838 225.265 232.39 225.265 231.838H233.265ZM224.265 217.435C229.236 217.435 233.265 221.464 233.265 226.435H225.265C225.265 225.883 224.817 225.435 224.265 225.435V217.435ZM125.006 217.142C125.194 217.33 125.448 217.435 125.713 217.435V225.435C123.326 225.435 121.037 224.487 119.349 222.799L125.006 217.142ZM67.2928 228.429C66.9023 228.82 66.9023 229.453 67.2928 229.844L61.6359 235.5C58.1212 231.986 58.1212 226.287 61.6359 222.773L67.2928 228.429ZM89.7724 194.636C93.2872 191.121 98.9856 191.121 102.5 194.636L96.8435 200.293C96.453 199.902 95.8198 199.902 95.4293 200.293L89.7724 194.636Z"
        fill="black" mask="url(#path-58-inside-1_1809_32584)" />
    <rect y="2.82843" width="13.1347" height="13.1347" rx="3"
        transform="matrix(-0.707107 0.707107 0.707107 0.707107 94.1362 217.849)" fill="#FE9143"
        stroke="#220E27" stroke-width="4" />
</svg>
    